<?xml version="1.0" encoding="us-ascii" standalone="no"?><svg xmlns="http://www.w3.org/2000/svg" xmlns:xlink="http://www.w3.org/1999/xlink" contentStyleType="text/css" height="756px" preserveAspectRatio="none" style="width:1024px;height:756px;background:#FFFFFF;" version="1.1" viewBox="0 0 1024 756" width="1024px" zoomAndPan="magnify"><defs/><g><!--class YarnSkein--><g id="elem_YarnSkein"><rect codeLine="7" fill="#F1F1F1" height="504.3125" id="YarnSkein" rx="2.5" ry="2.5" style="stroke:#181818;stroke-width:0.5;" width="1010" x="7" y="7"/><ellipse cx="473.25" cy="23" fill="#ADD1B2" rx="11" ry="11" style="stroke:#181818;stroke-width:1.0;"/><path d="M476.2188,28.6406 Q475.6406,28.9375 475,29.0781 Q474.3594,29.2344 473.6563,29.2344 Q471.1563,29.2344 469.8281,27.5938 Q468.5156,25.9375 468.5156,22.8125 Q468.5156,19.6875 469.8281,18.0313 Q471.1563,16.375 473.6563,16.375 Q474.3594,16.375 475,16.5313 Q475.6563,16.6875 476.2188,16.9844 L476.2188,19.7031 Q475.5938,19.125 475,18.8594 Q474.4063,18.5781 473.7813,18.5781 Q472.4375,18.5781 471.75,19.6563 Q471.0625,20.7188 471.0625,22.8125 Q471.0625,24.9063 471.75,25.9844 Q472.4375,27.0469 473.7813,27.0469 Q474.4063,27.0469 475,26.7813 Q475.5938,26.5 476.2188,25.9219 L476.2188,28.6406 Z " fill="#000000"/><text fill="#000000" font-family="sans-serif" font-size="14" lengthAdjust="spacing" textLength="69" x="493.75" y="27.8467">YarnSkein</text><line style="stroke:#181818;stroke-width:0.5;" x1="8" x2="1016" y1="39" y2="39"/><text fill="#000000" font-family="sans-serif" font-size="14" lengthAdjust="spacing" text-decoration="underline" textLength="405" x="13" y="55.9951">+fiberToStr : const static std::map&lt;fiberType, std::string&gt;</text><text fill="#000000" font-family="sans-serif" font-size="14" lengthAdjust="spacing" text-decoration="underline" textLength="408" x="13" y="72.292">+strToFiber : const static std::map&lt;std::string, fiberType&gt;</text><text fill="#000000" font-family="sans-serif" font-size="14" lengthAdjust="spacing" text-decoration="underline" textLength="438" x="13" y="88.5889">+strToWeight : const static std::map&lt;std::string, weightType&gt;</text><text fill="#000000" font-family="sans-serif" font-size="14" lengthAdjust="spacing" text-decoration="underline" textLength="437" x="13" y="104.8857">+weightToStr : const static std::map&lt;weightType, std::string&gt;</text><text fill="#000000" font-family="sans-serif" font-size="14" lengthAdjust="spacing" textLength="130" x="13" y="121.1826">-hookSize : double</text><text fill="#000000" font-family="sans-serif" font-size="14" lengthAdjust="spacing" textLength="110" x="13" y="137.4795">-length : double</text><text fill="#000000" font-family="sans-serif" font-size="14" lengthAdjust="spacing" textLength="143" x="13" y="153.7764">-needleSize : double</text><text fill="#000000" font-family="sans-serif" font-size="14" lengthAdjust="spacing" textLength="151" x="13" y="170.0732">-skeinWeight : double</text><text fill="#000000" font-family="sans-serif" font-size="14" lengthAdjust="spacing" textLength="112" x="13" y="186.3701">-fiber : fiberType</text><text fill="#000000" font-family="sans-serif" font-size="14" lengthAdjust="spacing" textLength="134" x="13" y="202.667">-numFiberType : int</text><text fill="#000000" font-family="sans-serif" font-size="14" lengthAdjust="spacing" textLength="123" x="13" y="218.9639">-color : std::string</text><text fill="#000000" font-family="sans-serif" font-size="14" lengthAdjust="spacing" textLength="190" x="13" y="235.2607">-strandWeight : weightType</text><line style="stroke:#181818;stroke-width:0.5;" x1="8" x2="1016" y1="242.5625" y2="242.5625"/><text fill="#000000" font-family="sans-serif" font-size="14" lengthAdjust="spacing" textLength="998" x="13" y="259.5576">+YarnSkein(std::string strandWeight, std::string color, double length, std::string fiber, double skeinWeight, double needleSize, double hookSize)</text><text fill="#000000" font-family="sans-serif" font-size="14" lengthAdjust="spacing" textLength="219" x="13" y="275.8545">+YarnSkein(const YarnSkein &amp;)</text><text fill="#000000" font-family="sans-serif" font-size="14" lengthAdjust="spacing" textLength="103" x="13" y="292.1514">+~YarnSkein()</text><text fill="#000000" font-family="sans-serif" font-size="14" lengthAdjust="spacing" textLength="315" x="13" y="308.4482">+operator=(const YarnSkein &amp;) : YarnSkein&amp;</text><text fill="#000000" font-family="sans-serif" font-size="14" lengthAdjust="spacing" textLength="171" x="13" y="324.7451">+getHookSize() : double</text><text fill="#000000" font-family="sans-serif" font-size="14" lengthAdjust="spacing" textLength="154" x="13" y="341.042">+getLength() : double</text><text fill="#000000" font-family="sans-serif" font-size="14" lengthAdjust="spacing" textLength="184" x="13" y="357.3389">+getNeedleSize() : double</text><text fill="#000000" font-family="sans-serif" font-size="14" lengthAdjust="spacing" textLength="192" x="13" y="373.6357">+getSkeinWeight() : double</text><text fill="#000000" font-family="sans-serif" font-size="14" lengthAdjust="spacing" textLength="168" x="13" y="389.9326">+getStrandWeight() : int</text><text fill="#000000" font-family="sans-serif" font-size="14" lengthAdjust="spacing" textLength="165" x="13" y="406.2295">+getColor() : std::string</text><text fill="#000000" font-family="sans-serif" font-size="14" lengthAdjust="spacing" textLength="186" x="13" y="422.5264">+getFiberList() : std::string</text><text fill="#000000" font-family="sans-serif" font-size="14" lengthAdjust="spacing" textLength="262" x="13" y="438.8232">+getStrandWeightName() : std::string</text><text fill="#000000" font-family="sans-serif" font-size="14" lengthAdjust="spacing" textLength="248" x="13" y="455.1201">-copyYarn(const YarnSkein &amp;) : void</text><text fill="#000000" font-family="sans-serif" font-size="14" lengthAdjust="spacing" textLength="230" x="13" y="471.417">+setColor(std::string color) : void</text><text fill="#000000" font-family="sans-serif" font-size="14" lengthAdjust="spacing" textLength="217" x="13" y="487.7139">-setFiber(std::string fiber) : void</text><text fill="#000000" font-family="sans-serif" font-size="14" lengthAdjust="spacing" textLength="229" x="13" y="504.0107">+setLength(double length) : void</text></g><!--class YarnSkein::fiberType--><g id="elem_YarnSkein::fiberType"><rect codeLine="39" fill="#F1F1F1" height="129.4844" id="YarnSkein::fiberType" rx="2.5" ry="2.5" style="stroke:#181818;stroke-width:0.5;" width="175" x="315.5" y="595.76"/><ellipse cx="330.5" cy="611.76" fill="#EB937F" rx="11" ry="11" style="stroke:#181818;stroke-width:1.0;"/><path d="M334.6094,617.76 L326.8906,617.76 L326.8906,605.3694 L334.6094,605.3694 L334.6094,607.5256 L329.3438,607.5256 L329.3438,610.1975 L334.1094,610.1975 L334.1094,612.3538 L329.3438,612.3538 L329.3438,615.6038 L334.6094,615.6038 L334.6094,617.76 Z " fill="#000000"/><text fill="#000000" font-family="sans-serif" font-size="14" lengthAdjust="spacing" textLength="143" x="344.5" y="616.6067">YarnSkein::fiberType</text><line style="stroke:#181818;stroke-width:0.5;" x1="316.5" x2="489.5" y1="627.76" y2="627.76"/><text fill="#000000" font-family="sans-serif" font-size="14" lengthAdjust="spacing" textLength="58" x="321.5" y="644.7551">ACRYLIC</text><text fill="#000000" font-family="sans-serif" font-size="14" lengthAdjust="spacing" textLength="63" x="321.5" y="661.052">BAMBOO</text><text fill="#000000" font-family="sans-serif" font-size="14" lengthAdjust="spacing" textLength="60" x="321.5" y="677.3489">COTTON</text><text fill="#000000" font-family="sans-serif" font-size="14" lengthAdjust="spacing" textLength="28" x="321.5" y="693.6457">SILK</text><text fill="#000000" font-family="sans-serif" font-size="14" lengthAdjust="spacing" textLength="42" x="321.5" y="709.9426">WOOL</text><line style="stroke:#181818;stroke-width:0.5;" x1="316.5" x2="489.5" y1="717.2444" y2="717.2444"/></g><!--class YarnSkein::weightType--><g id="elem_YarnSkein::weightType"><rect codeLine="48" fill="#F1F1F1" height="178.375" id="YarnSkein::weightType" rx="2.5" ry="2.5" style="stroke:#181818;stroke-width:0.5;" width="191" x="525.5" y="571.31"/><ellipse cx="540.5" cy="587.31" fill="#EB937F" rx="11" ry="11" style="stroke:#181818;stroke-width:1.0;"/><path d="M544.6094,593.31 L536.8906,593.31 L536.8906,580.9194 L544.6094,580.9194 L544.6094,583.0756 L539.3438,583.0756 L539.3438,585.7475 L544.1094,585.7475 L544.1094,587.9038 L539.3438,587.9038 L539.3438,591.1538 L544.6094,591.1538 L544.6094,593.31 Z " fill="#000000"/><text fill="#000000" font-family="sans-serif" font-size="14" lengthAdjust="spacing" textLength="159" x="554.5" y="592.1567">YarnSkein::weightType</text><line style="stroke:#181818;stroke-width:0.5;" x1="526.5" x2="715.5" y1="603.31" y2="603.31"/><text fill="#000000" font-family="sans-serif" font-size="14" lengthAdjust="spacing" textLength="45" x="531.5" y="620.3051">BULKY</text><text fill="#000000" font-family="sans-serif" font-size="14" lengthAdjust="spacing" textLength="30" x="531.5" y="636.602">FINE</text><text fill="#000000" font-family="sans-serif" font-size="14" lengthAdjust="spacing" textLength="46" x="531.5" y="652.8989">JUMBO</text><text fill="#000000" font-family="sans-serif" font-size="14" lengthAdjust="spacing" textLength="35" x="531.5" y="669.1957">LACE</text><text fill="#000000" font-family="sans-serif" font-size="14" lengthAdjust="spacing" textLength="40" x="531.5" y="685.4926">LIGHT</text><text fill="#000000" font-family="sans-serif" font-size="14" lengthAdjust="spacing" textLength="57" x="531.5" y="701.7895">MEDIUM</text><text fill="#000000" font-family="sans-serif" font-size="14" lengthAdjust="spacing" textLength="92" x="531.5" y="718.0864">SUPERBULKY</text><text fill="#000000" font-family="sans-serif" font-size="14" lengthAdjust="spacing" textLength="77" x="531.5" y="734.3832">SUPERFINE</text><line style="stroke:#181818;stroke-width:0.5;" x1="526.5" x2="715.5" y1="741.685" y2="741.685"/></g><!--reverse link YarnSkein to YarnSkein::fiberType--><g id="link_YarnSkein_YarnSkein::fiberType"><path codeLine="70" d="M440.1994,523.2263 C431.8094,553.9563 427.06,571.35 420.51,595.37 " fill="none" id="YarnSkein-backto-YarnSkein::fiberType" style="stroke:#181818;stroke-width:1.0;"/><polygon fill="#181818" points="443.36,511.65,437.9209,516.3846,440.1994,523.2263,445.6385,518.4917,443.36,511.65" style="stroke:#181818;stroke-width:1.0;"/></g><!--reverse link YarnSkein to YarnSkein::weightType--><g id="link_YarnSkein_YarnSkein::weightType"><path codeLine="73" d="M583.8012,523.2261 C589.5112,544.1361 591.83,552.64 596.82,570.91 " fill="none" id="YarnSkein-backto-YarnSkein::weightType" style="stroke:#181818;stroke-width:1.0;"/><polygon fill="#181818" points="580.64,511.65,578.3619,518.4918,583.8012,523.2261,586.0793,516.3844,580.64,511.65" style="stroke:#181818;stroke-width:1.0;"/></g><!--SRC=[ZLJTRfim6Bt6J-6hDjkITTVHDecmP6KbC1MYAfS4le8NOYFiREggxjbdOuADODLoGtpEyV7tP_CZeNNQf2ViLIddhX0DEPm5-1cZCVaD-0EIlvjh71r-G2Oulhv1A5DIl4yR6X-1KFoCd7VzQiP5lbnowKCBB3yfpH-05AMOOvl9MCMQESxP-L01he0MeXmg7ia1Z88hxujHXr60l08LPW-LZ1qLy6OGaao62olWAqN_CRnQiXgQLB3cquGQBytoIcgVkKW5oLvqZ0cBHICbUf-cT2QdjFwe9Kyr3BBxRBj8A64RfVkdYxLrZdlBiOkkqF_P_6gr8vyEVZKfitMKLG7Yjcl2J1LEDqOJGTlc4HpsVHnHiMdxW5jS6crZUefin4o8ZLgpPCEFNGVwydOXM3FSna2eKDRdq-OYxC5sgkNAgeasyHJHxXvHhKj0k9YcxUF3z0HZbJorVbBpEJsvFnd9fHM_136wXKQqu5quiz5573frZHpSNjl6YbcYPbhGYtnDG9RE1BbSzlLM3udhtUy3tqFEojskeWWvNfGaKOYSs0_kaFCGHS6aYJb3kQnsmTqUEHi_N2Fdsquw8ITmFRa8_A-t2NAswo_-RYjTTz_Nzvsw_TzkKGVePy-d9JH4f3G3t40bRu4iSKbg_H1gZLiK3HGjDQ5vRzhnTh6Op1kzfhAAfuyBWGl8CUiVvBy0]--></g></svg>